<svg width="20" height="20" viewBox="0 0 20 20" fill="none" xmlns="http://www.w3.org/2000/svg">
<g clip-path="url(#clip0_6468_1820)">
<path d="M12.3576 3.41064V-0.0390625H4.23065C3.17764 -0.0390625 2.30469 0.828705 2.30469 1.88156V18.0403C2.30469 19.0933 3.17764 19.9609 4.23065 19.9609H15.8286C16.8814 19.9609 17.7544 19.0932 17.7544 18.0403V5.62225H14.5744C13.347 5.62225 12.3576 4.63287 12.3576 3.41064ZM6.62216 9.86038L9.72275 6.53244C9.80209 6.44775 9.91318 6.40015 10.0348 6.40015C10.1566 6.40015 10.2623 6.44775 10.347 6.53244L13.4476 9.86038C13.6063 10.0298 13.5957 10.2995 13.4264 10.4584C13.347 10.5324 13.2411 10.5695 13.1407 10.5695C13.0295 10.5695 12.9132 10.5219 12.8285 10.4372L10.4529 7.89749V13.945C10.4529 14.1779 10.2625 14.3683 10.0296 14.3683C9.79675 14.3683 9.60632 14.1779 9.60632 13.945V7.89749L7.24121 10.4372C7.08252 10.6064 6.81259 10.6171 6.64337 10.4584C6.474 10.2995 6.46347 10.0351 6.62216 9.86038ZM14.8073 16.7334C14.8073 16.9662 14.6169 17.1567 14.384 17.1567H5.67505C5.4422 17.1567 5.25177 16.9662 5.25177 16.7334C5.25177 16.5006 5.4422 16.3101 5.67505 16.3101H14.3893C14.6222 16.3101 14.8073 16.5007 14.8073 16.7334Z" fill="#3C3C3D" /> <path d="M14.5745 4.77573H17.1723L13.2041 0.611755V3.41068C13.2041 4.16736 13.8125 4.77573 14.5745 4.77573Z" fill="#3C3C3D" /> </g> <defs> <clipPath id="clip0_6468_1820"> <rect width="20" height="20" fill="white" />  </clipPath> </defs> </svg>